<svg width="243" height="127" viewBox="0 0 243 127" fill="none" xmlns="http://www.w3.org/2000/svg">
<path d="M0.642046 126V104.182H3.28409V115.006H3.53977L13.3409 104.182H16.7926L7.63068 114.026L16.7926 126H13.5966L6.01136 115.858L3.28409 118.926V126H0.642046ZM22.8544 104.182V126H20.2124V104.182H22.8544ZM46.5609 115.091C46.5609 117.392 46.1454 119.381 45.3145 121.057C44.4835 122.733 43.3436 124.026 41.8947 124.935C40.4458 125.844 38.791 126.298 36.9302 126.298C35.0694 126.298 33.4146 125.844 31.9657 124.935C30.5169 124.026 29.377 122.733 28.546 121.057C27.715 119.381 27.2995 117.392 27.2995 115.091C27.2995 112.79 27.715 110.801 28.546 109.125C29.377 107.449 30.5169 106.156 31.9657 105.247C33.4146 104.338 35.0694 103.884 36.9302 103.884C38.791 103.884 40.4458 104.338 41.8947 105.247C43.3436 106.156 44.4835 107.449 45.3145 109.125C46.1454 110.801 46.5609 112.79 46.5609 115.091ZM44.0041 115.091C44.0041 113.202 43.688 111.607 43.0559 110.308C42.4309 109.008 41.5822 108.024 40.5098 107.357C39.4444 106.689 38.2512 106.355 36.9302 106.355C35.6092 106.355 34.4125 106.689 33.34 107.357C32.2747 108.024 31.426 109.008 30.7939 110.308C30.1689 111.607 29.8564 113.202 29.8564 115.091C29.8564 116.98 30.1689 118.575 30.7939 119.874C31.426 121.174 32.2747 122.158 33.34 122.825C34.4125 123.493 35.6092 123.827 36.9302 123.827C38.2512 123.827 39.4444 123.493 40.5098 122.825C41.5822 122.158 42.4309 121.174 43.0559 119.874C43.688 118.575 44.0041 116.98 44.0041 115.091ZM62.9352 109.636C62.8074 108.557 62.2889 107.719 61.3798 107.122C60.4707 106.526 59.3556 106.227 58.0346 106.227C57.0687 106.227 56.2235 106.384 55.4991 106.696C54.7818 107.009 54.2207 107.438 53.8159 107.985C53.4181 108.532 53.2193 109.153 53.2193 109.849C53.2193 110.432 53.3578 110.933 53.6348 111.352C53.9189 111.763 54.2811 112.108 54.7214 112.385C55.1618 112.655 55.6234 112.879 56.1064 113.056C56.5893 113.227 57.0332 113.365 57.438 113.472L59.6539 114.068C60.2221 114.217 60.8542 114.423 61.5502 114.686C62.2534 114.949 62.9245 115.308 63.5637 115.762C64.21 116.21 64.7427 116.785 65.1618 117.488C65.5808 118.191 65.7903 119.054 65.7903 120.077C65.7903 121.256 65.4814 122.321 64.8635 123.273C64.2527 124.224 63.3578 124.981 62.1788 125.542C61.0069 126.103 59.5829 126.384 57.9068 126.384C56.3443 126.384 54.9913 126.131 53.8478 125.627C52.7115 125.123 51.8166 124.42 51.1632 123.518C50.5169 122.616 50.1511 121.568 50.0659 120.375H52.7931C52.8642 121.199 53.1412 121.881 53.6241 122.42C54.1142 122.953 54.7321 123.351 55.4778 123.614C56.2306 123.869 57.0403 123.997 57.9068 123.997C58.9153 123.997 59.8208 123.834 60.6234 123.507C61.426 123.173 62.0616 122.712 62.5304 122.122C62.9991 121.526 63.2335 120.83 63.2335 120.034C63.2335 119.31 63.0311 118.72 62.6262 118.266C62.2214 117.811 61.6887 117.442 61.0282 117.158C60.3677 116.874 59.6539 116.625 58.8869 116.412L56.2022 115.645C54.4977 115.155 53.1483 114.455 52.1539 113.546C51.1596 112.637 50.6625 111.447 50.6625 109.977C50.6625 108.756 50.9927 107.69 51.6532 106.781C52.3208 105.865 53.2157 105.155 54.3379 104.651C55.4672 104.139 56.7278 103.884 58.1199 103.884C59.5261 103.884 60.7761 104.136 61.8699 104.64C62.9636 105.137 63.8301 105.819 64.4693 106.685C65.1156 107.552 65.4565 108.536 65.492 109.636H62.9352ZM70.1342 126V104.182H72.7763V115.006H73.032L82.8331 104.182H86.2848L77.1229 114.026L86.2848 126H83.0888L75.5036 115.858L72.7763 118.926V126H70.1342Z" fill="#161414"/>
<path d="M115.699 111H113.057C112.901 110.24 112.627 109.572 112.237 108.997C111.853 108.422 111.384 107.939 110.83 107.548C110.283 107.151 109.676 106.852 109.009 106.653C108.341 106.455 107.645 106.355 106.92 106.355C105.599 106.355 104.403 106.689 103.33 107.357C102.265 108.024 101.416 109.008 100.784 110.308C100.159 111.607 99.8466 113.202 99.8466 115.091C99.8466 116.98 100.159 118.575 100.784 119.874C101.416 121.174 102.265 122.158 103.33 122.825C104.403 123.493 105.599 123.827 106.92 123.827C107.645 123.827 108.341 123.727 109.009 123.528C109.676 123.33 110.283 123.035 110.83 122.644C111.384 122.246 111.853 121.76 112.237 121.185C112.627 120.602 112.901 119.935 113.057 119.182H115.699C115.5 120.297 115.138 121.295 114.612 122.175C114.087 123.056 113.433 123.805 112.652 124.423C111.871 125.034 110.994 125.499 110.021 125.819C109.055 126.138 108.021 126.298 106.92 126.298C105.06 126.298 103.405 125.844 101.956 124.935C100.507 124.026 99.3672 122.733 98.5362 121.057C97.7053 119.381 97.2898 117.392 97.2898 115.091C97.2898 112.79 97.7053 110.801 98.5362 109.125C99.3672 107.449 100.507 106.156 101.956 105.247C103.405 104.338 105.06 103.884 106.92 103.884C108.021 103.884 109.055 104.043 110.021 104.363C110.994 104.683 111.871 105.151 112.652 105.769C113.433 106.38 114.087 107.126 114.612 108.006C115.138 108.88 115.5 109.878 115.699 111ZM138.377 115.091C138.377 117.392 137.962 119.381 137.131 121.057C136.3 122.733 135.16 124.026 133.711 124.935C132.262 125.844 130.607 126.298 128.747 126.298C126.886 126.298 125.231 125.844 123.782 124.935C122.333 124.026 121.193 122.733 120.362 121.057C119.531 119.381 119.116 117.392 119.116 115.091C119.116 112.79 119.531 110.801 120.362 109.125C121.193 107.449 122.333 106.156 123.782 105.247C125.231 104.338 126.886 103.884 128.747 103.884C130.607 103.884 132.262 104.338 133.711 105.247C135.16 106.156 136.3 107.449 137.131 109.125C137.962 110.801 138.377 112.79 138.377 115.091ZM135.82 115.091C135.82 113.202 135.504 111.607 134.872 110.308C134.247 109.008 133.399 108.024 132.326 107.357C131.261 106.689 130.068 106.355 128.747 106.355C127.426 106.355 126.229 106.689 125.156 107.357C124.091 108.024 123.242 109.008 122.61 110.308C121.985 111.607 121.673 113.202 121.673 115.091C121.673 116.98 121.985 118.575 122.61 119.874C123.242 121.174 124.091 122.158 125.156 122.825C126.229 123.493 127.426 123.827 128.747 123.827C130.068 123.827 131.261 123.493 132.326 122.825C133.399 122.158 134.247 121.174 134.872 119.874C135.504 118.575 135.82 116.98 135.82 115.091ZM160.121 104.182V126H157.564L145.675 108.869H145.462V126H142.82V104.182H145.377L157.308 121.355H157.521V104.182H160.121ZM182.709 104.182V126H180.152L168.263 108.869H168.05V126H165.408V104.182H167.964L179.896 121.355H180.109V104.182H182.709ZM187.996 126V104.182H201.163V106.526H190.638V113.898H200.481V116.241H190.638V123.656H201.334V126H187.996ZM223.482 111H220.84C220.684 110.24 220.41 109.572 220.02 108.997C219.636 108.422 219.167 107.939 218.613 107.548C218.067 107.151 217.459 106.852 216.792 106.653C216.124 106.455 215.428 106.355 214.704 106.355C213.383 106.355 212.186 106.689 211.113 107.357C210.048 108.024 209.199 109.008 208.567 110.308C207.942 111.607 207.63 113.202 207.63 115.091C207.63 116.98 207.942 118.575 208.567 119.874C209.199 121.174 210.048 122.158 211.113 122.825C212.186 123.493 213.383 123.827 214.704 123.827C215.428 123.827 216.124 123.727 216.792 123.528C217.459 123.33 218.067 123.035 218.613 122.644C219.167 122.246 219.636 121.76 220.02 121.185C220.41 120.602 220.684 119.935 220.84 119.182H223.482C223.283 120.297 222.921 121.295 222.395 122.175C221.87 123.056 221.216 123.805 220.435 124.423C219.654 125.034 218.777 125.499 217.804 125.819C216.838 126.138 215.805 126.298 214.704 126.298C212.843 126.298 211.188 125.844 209.739 124.935C208.29 124.026 207.15 122.733 206.319 121.057C205.488 119.381 205.073 117.392 205.073 115.091C205.073 112.79 205.488 110.801 206.319 109.125C207.15 107.449 208.29 106.156 209.739 105.247C211.188 104.338 212.843 103.884 214.704 103.884C215.805 103.884 216.838 104.043 217.804 104.363C218.777 104.683 219.654 105.151 220.435 105.769C221.216 106.38 221.87 107.126 222.395 108.006C222.921 108.88 223.283 109.878 223.482 111ZM226.558 106.526V104.182H242.922V106.526H236.061V126H233.419V106.526H226.558Z" fill="#070707"/>
<path d="M74.5 9.12H81.7C81.7 32.61 73.42 54.39 44.08 68.79L40.03 62.94C65.77 50.34 74.5 32.16 74.5 9.93V9.12ZM44.44 9.12H78.28V15.15H44.44V9.12ZM73.42 29.28V35.04L41.65 38.01L40.39 31.44L73.42 29.28ZM97.72 0.659997H105.19V82.02H97.72V0.659997ZM129.933 4.53H182.313V10.65H129.933V4.53ZM178.263 4.53H185.643V11.46C185.643 18.93 185.643 27.3 183.393 38.37L176.013 37.83C178.263 26.85 178.263 18.84 178.263 11.46V4.53ZM180.423 19.38V24.96L129.033 27.39L127.953 21L180.423 19.38ZM121.293 43.77H194.733V49.89H121.293V43.77ZM151.083 32.07H158.553V47.64H151.083V32.07ZM130.653 74.64H187.443V80.76H130.653V74.64ZM130.653 56.82H138.123V77.16H130.653V56.82Z" fill="black"/>
</svg>
