<svg width="332" height="290" viewBox="0 0 332 290" fill="none" xmlns="http://www.w3.org/2000/svg">
<rect width="332" height="290" rx="66" fill="#FFFBFB"/>
<path d="M29.6691 89.0261L69.7205 31.8382L76.6456 36.6881L56.7764 65.0587L57.4466 65.5281L103.006 55.1493L112.053 61.4856L69.9685 70.4687L72.0017 118.674L63.6245 112.807L62.3604 72.2991L49.5797 75.3347L36.5943 93.8761L29.6691 89.0261ZM127.942 72.6131L87.8903 129.801L80.9652 124.951L121.017 67.7632L127.942 72.6131Z" fill="black"/>
<path d="M175.329 132.438L168.404 127.588C169.39 125.309 169.898 123.057 169.931 120.832C169.981 118.62 169.639 116.494 168.904 114.453C168.201 112.407 167.157 110.51 165.772 108.763C164.387 107.017 162.745 105.478 160.847 104.148C157.384 101.723 153.634 100.402 149.598 100.183C145.58 99.977 141.55 100.997 137.507 103.244C133.483 105.503 129.737 109.109 126.269 114.061C122.801 119.012 120.693 123.765 119.945 128.319C119.216 132.886 119.635 137.023 121.202 140.728C122.788 144.447 125.312 147.518 128.774 149.943C130.673 151.273 132.68 152.29 134.795 152.995C136.91 153.699 139.042 154.041 141.193 154.021C143.375 153.996 145.497 153.581 147.558 152.777C149.651 151.968 151.593 150.72 153.385 149.033L160.31 153.883C157.742 156.441 154.961 158.391 151.966 159.735C148.972 161.079 145.884 161.843 142.702 162.029C139.533 162.195 136.38 161.805 133.243 160.856C130.124 159.921 127.123 158.443 124.237 156.422C119.36 153.006 115.857 148.777 113.728 143.734C111.599 138.692 110.984 133.211 111.883 127.292C112.782 121.374 115.343 115.399 119.567 109.367C123.791 103.335 128.531 98.8857 133.786 96.0178C139.041 93.1498 144.401 91.8543 149.868 92.1311C155.334 92.4079 160.506 94.2543 165.384 97.6701C168.269 99.6909 170.684 102.007 172.629 104.618C174.593 107.241 176.032 110.08 176.945 113.134C177.872 116.169 178.215 119.323 177.976 122.596C177.75 125.851 176.868 129.131 175.329 132.438ZM227.262 184.791C223.038 190.823 218.299 195.272 213.044 198.14C207.789 201.008 202.428 202.304 196.962 202.027C191.495 201.75 186.323 199.904 181.446 196.488C176.569 193.072 173.066 188.843 170.937 183.8C168.808 178.758 168.193 173.277 169.092 167.359C169.99 161.44 172.552 155.465 176.776 149.433C181 143.402 185.74 138.952 190.995 136.084C196.25 133.216 201.61 131.92 207.077 132.197C212.543 132.474 217.715 134.32 222.593 137.736C227.47 141.152 230.973 145.381 233.102 150.424C235.231 155.466 235.846 160.947 234.947 166.866C234.048 172.784 231.487 178.759 227.262 184.791ZM220.561 180.097C224.029 175.146 226.127 170.386 226.856 165.819C227.604 161.265 227.185 157.129 225.6 153.41C224.033 149.705 221.518 146.639 218.055 144.214C214.593 141.79 210.843 140.468 206.807 140.249C202.789 140.043 198.759 141.063 194.716 143.31C190.692 145.569 186.946 149.175 183.478 154.127C180.01 159.078 177.902 163.831 177.154 168.385C176.425 172.952 176.844 177.089 178.411 180.794C179.996 184.513 182.521 187.585 185.983 190.01C189.446 192.435 193.186 193.75 197.204 193.956C201.24 194.174 205.271 193.154 209.295 190.895C213.337 188.648 217.093 185.049 220.561 180.097ZM304.281 196.111L264.229 253.299L257.527 248.606L257.811 181.88L257.253 181.488L225.806 226.39L218.881 221.54L258.932 164.352L265.634 169.045L265.384 235.962L265.942 236.353L297.467 191.34L304.281 196.111Z" fill="#002ECF"/>
</svg>
