<svg width="332" height="290" viewBox="0 0 332 290" fill="none" xmlns="http://www.w3.org/2000/svg">
<rect width="332" height="290" rx="71" fill="white"/>
<path d="M20.5558 169.326L20.4798 99.5076L28.9343 99.4984L28.972 134.135L29.7902 134.134L61.1161 99.4633L72.1616 99.4513L42.8777 130.983L72.2376 169.269L62.0103 169.281L37.7023 136.852L28.9857 146.68L29.0103 169.316L20.5558 169.326ZM91.5593 99.4302L91.6353 169.248L83.1807 169.258L83.1047 99.4394L91.5593 99.4302Z" fill="black"/>
<path d="M164.717 121.169L156.262 121.178C155.759 118.747 154.882 116.611 153.63 114.772C152.401 112.932 150.899 111.388 149.125 110.14C147.374 108.869 145.429 107.917 143.292 107.283C141.155 106.649 138.928 106.333 136.609 106.336C132.382 106.34 128.554 107.413 125.124 109.553C121.718 111.693 119.005 114.843 116.987 119.005C114.991 123.166 113.997 128.269 114.004 134.315C114.01 140.36 115.016 145.461 117.02 149.618C119.047 153.775 121.767 156.92 125.178 159.053C128.612 161.185 132.443 162.249 136.67 162.245C138.988 162.242 141.215 161.922 143.351 161.283C145.487 160.644 147.429 159.699 149.178 158.447C150.949 157.172 152.447 155.614 153.672 153.772C154.92 151.907 155.793 149.769 156.29 147.36L164.745 147.351C164.113 150.919 162.957 154.114 161.278 156.934C159.599 159.754 157.511 162.154 155.013 164.134C152.515 166.091 149.71 167.583 146.598 168.609C143.508 169.635 140.202 170.15 136.679 170.154C130.724 170.16 125.427 168.712 120.788 165.807C116.148 162.903 112.496 158.771 109.831 153.41C107.166 148.05 105.83 141.687 105.822 134.324C105.814 126.96 107.136 120.595 109.79 115.229C112.443 109.862 116.086 105.722 120.719 102.808C125.352 99.8934 130.646 98.4331 136.601 98.4266C140.124 98.4228 143.431 98.9305 146.523 99.9499C149.638 100.969 152.446 102.466 154.948 104.441C157.45 106.393 159.544 108.777 161.229 111.593C162.914 114.387 164.076 117.579 164.717 121.169ZM237.302 134.181C237.31 141.544 235.987 147.909 233.334 153.276C230.681 158.642 227.037 162.783 222.404 165.697C217.771 168.611 212.477 170.071 206.523 170.078C200.568 170.084 195.271 168.636 190.632 165.731C185.992 162.827 182.34 158.695 179.675 153.334C177.01 147.974 175.673 141.611 175.665 134.248C175.657 126.884 176.98 120.519 179.633 115.152C182.287 109.786 185.93 105.646 190.563 102.731C195.196 99.8174 200.49 98.3571 206.445 98.3506C212.399 98.3441 217.696 99.7929 222.336 102.697C226.975 105.601 230.627 109.733 233.292 115.094C235.957 120.455 237.294 126.817 237.302 134.181ZM229.12 134.19C229.113 128.144 228.096 123.043 226.069 118.886C224.065 114.729 221.345 111.584 217.911 109.452C214.5 107.319 210.68 106.255 206.453 106.26C202.226 106.264 198.397 107.337 194.968 109.477C191.561 111.617 188.849 114.767 186.831 118.929C184.835 123.09 183.841 128.193 183.847 134.239C183.854 140.284 184.859 145.385 186.864 149.542C188.891 153.699 191.61 156.844 195.022 158.977C198.456 161.109 202.287 162.173 206.514 162.169C210.741 162.164 214.558 161.092 217.965 158.952C221.395 156.812 224.107 153.661 226.103 149.5C228.121 145.338 229.127 140.235 229.12 134.19ZM306.843 99.1958L306.919 169.014L298.737 169.023L260.632 114.246L259.951 114.247L260.01 169.065L251.556 169.074L251.48 99.2561L259.661 99.2472L297.903 154.16L298.585 154.159L298.525 99.2049L306.843 99.1958Z" fill="#002ECF"/>
</svg>
